<?xml version="1.0" standalone="no"?><!DOCTYPE svg PUBLIC "-//W3C//DTD SVG 1.1//EN"
        "http://www.w3.org/Graphics/SVG/1.1/DTD/svg11.dtd">
<svg t="1577084208629" class="icon" viewBox="0 0 1024 1024" version="1.1" xmlns="http://www.w3.org/2000/svg" p-id="2082"
     xmlns:xlink="http://www.w3.org/1999/xlink" width="200" height="200">
    <defs>
        <style type="text/css"></style>
    </defs>
    <path d="M377.0079763 162.6041205H245.61234173c-45.82665482 0-83.10935703 37.02379457-83.10935704 82.72099555v131.78399605c0 11.9097521 9.5795832 21.48933531 21.48933531 21.48933531 11.9097521 0 21.48933531-9.5795832 21.48933531-21.48933531V245.19566222c0-21.8776968 17.99408197-39.61287111 40.0012326-39.61287111h131.26618073c11.9097521 0 21.48933531-9.5795832 21.48933531-21.4893353 0.25890765-11.9097521-9.32067555-21.48933531-21.23042765-21.48933531zM377.0079763 795.89224297H245.61234173c-22.13660445 0-40.00123259-17.73517431-40.00123259-39.61287112V624.49537581c0-11.9097521-9.5795832-21.48933531-21.48933531-21.48933531-11.9097521 0-21.48933531 9.5795832-21.4893353 21.48933531v131.78399604c0 45.56774717 37.28270222 82.72099555 83.10935703 82.72099556h131.26618074c11.9097521 0 21.48933531-9.5795832 21.48933532-21.48933531s-9.5795832-21.61878914-21.48933532-21.61878913zM756.30768988 162.6041205H624.52369383c-11.9097521 0-21.48933531 9.5795832-21.4893353 21.48933531 0 11.9097521 9.5795832 21.48933531 21.4893353 21.4893353h131.78399605c21.8776968 0 39.61287111 17.73517431 39.6128711 39.61287111v131.78399605c0 11.9097521 9.5795832 21.48933531 21.48933532 21.48933531 11.9097521 0 21.48933531-9.5795832 21.48933532-21.48933531V245.19566222c0.12945383-45.56774717-37.02379457-82.59154173-82.59154174-82.59154172zM817.4098963 603.0060405c-11.9097521 0-21.48933531 9.5795832-21.48933532 21.48933531v131.78399604c0 21.8776968-17.73517431 39.61287111-39.6128711 39.61287112H624.52369383c-11.9097521 0-21.48933531 9.5795832-21.4893353 21.4893353s9.5795832 21.48933531 21.4893353 21.48933531h131.78399605c45.56774717 0 82.72099555-37.02379457 82.72099555-82.72099555V624.49537581c0-11.9097521-9.70903703-21.48933531-21.61878913-21.48933531z"
          fill="#3f87fd" p-id="2083"></path>
    <path d="M500.76583506 517.04869925m-68.09271309 0a68.09271309 68.09271309 0 1 0 136.18542618 0 68.09271309 68.09271309 0 1 0-136.18542618 0Z"
          fill="#3f87fd" p-id="2084"></path>
    <path d="M657.92278125 385.78251852h-53.3349768c-8.15559111 0-15.53445925-3.88361482-19.80643555-10.74466766l-12.42756742-17.60572049c-4.2719763-6.47269136-11.65084445-10.35630617-19.41807407-10.35630618h-109.38848394c-7.76722963 0-15.01664395 3.88361482-19.80643556 10.35630618l-12.03920594 17.60572049c-4.78979161 6.86105283-12.03920592 10.74466765-19.80643555 10.74466766h-47.76846222c-19.41807408 0-35.34089482 15.53445925-35.34089481 34.82307951v198.97053234c0 19.41807408 15.92282075 34.8230795 35.34089481 34.8230795h313.92553086c19.41807408 0 34.8230795-15.53445925 34.82307952-34.8230795V420.60559803c-0.12945383-19.28862025-15.53445925-34.8230795-34.95253333-34.82307951z m-157.15694619 227.83873579c-52.94661531 0-96.44310124-43.10812445-96.44310123-96.44310122s43.49648592-96.44310124 96.44310123-96.44310124c53.3349768 0 96.83146272 43.10812445 96.83146272 96.44310124s-43.49648592 96.44310124-96.83146272 96.44310122z"
          fill="#3f87fd" p-id="2085"></path>
</svg>